<svg width="852" height="444" viewBox="0 0 852 444" fill="none" xmlns="http://www.w3.org/2000/svg">
<rect width="852" height="444" transform="matrix(1 0 0 -1 0 444)" fill="white"/>
<path d="M394.044 179.273L406.878 141.668H412.605L397.149 185H391.56L376.242 141.668H381.969L394.734 179.273H394.044Z" fill="black"/>
<path d="M415.845 172.817L424.98 141.727H435.501L421.515 184H410.868L397.134 141.727H407.781L416.727 172.817H415.845Z" fill="black"/>
<rect x="375" y="140" width="61" height="2" fill="white"/>
<path d="M377.1 141V140.372H377.487V140.439H377.178V140.65H377.469V140.717H377.178V140.932H377.487V141H377.1ZM377.829 141.012C377.791 141.012 377.755 141.002 377.722 140.982C377.689 140.962 377.663 140.933 377.643 140.895C377.623 140.858 377.613 140.813 377.613 140.76C377.613 140.708 377.623 140.663 377.643 140.626C377.663 140.589 377.689 140.56 377.721 140.54C377.754 140.52 377.789 140.51 377.826 140.51C377.858 140.51 377.888 140.518 377.914 140.534C377.941 140.55 377.962 140.574 377.977 140.605C377.993 140.637 378.001 140.676 378.001 140.722H377.967C377.967 140.691 377.96 140.665 377.948 140.644C377.936 140.623 377.92 140.606 377.9 140.595C377.88 140.584 377.858 140.579 377.836 140.579C377.81 140.579 377.786 140.586 377.764 140.6C377.742 140.615 377.725 140.635 377.712 140.662C377.699 140.689 377.693 140.722 377.693 140.76C377.693 140.8 377.699 140.833 377.713 140.86C377.727 140.887 377.745 140.907 377.767 140.921C377.789 140.935 377.812 140.942 377.837 140.942C377.859 140.942 377.879 140.937 377.899 140.927C377.919 140.916 377.935 140.901 377.948 140.88C377.96 140.86 377.967 140.835 377.967 140.805H377.99C377.99 140.846 377.983 140.882 377.971 140.913C377.959 140.944 377.941 140.969 377.917 140.986C377.893 141.003 377.863 141.012 377.829 141.012ZM378.091 141.246C378.045 141.233 378.013 141.214 377.995 141.188C377.976 141.161 377.967 141.124 377.967 141.076V140.634L377.991 140.522H378.044V141.081C378.044 141.104 378.046 141.122 378.05 141.135C378.054 141.148 378.062 141.158 378.073 141.165C378.083 141.173 378.098 141.18 378.117 141.186L378.091 141.246ZM378.572 140.521H378.65V141H378.572V140.521ZM378.233 140.521H378.311V140.819C378.311 140.859 378.321 140.889 378.34 140.91C378.36 140.931 378.388 140.941 378.424 140.941C378.454 140.941 378.48 140.933 378.502 140.917C378.525 140.901 378.542 140.879 378.554 140.851C378.566 140.823 378.572 140.79 378.572 140.754H378.601C378.601 140.808 378.594 140.853 378.578 140.891C378.563 140.929 378.541 140.959 378.512 140.979C378.484 140.999 378.451 141.009 378.413 141.009C378.377 141.009 378.346 141.002 378.319 140.989C378.292 140.976 378.271 140.955 378.256 140.928C378.241 140.901 378.233 140.867 378.233 140.825V140.521ZM379.149 141L379.139 140.895V140.69C379.139 140.647 379.13 140.616 379.111 140.597C379.093 140.578 379.066 140.569 379.029 140.569C379.008 140.569 378.989 140.572 378.972 140.578C378.956 140.584 378.942 140.593 378.932 140.606C378.923 140.618 378.918 140.634 378.918 140.654H378.831C378.831 140.619 378.839 140.591 378.856 140.57C378.873 140.549 378.897 140.534 378.926 140.524C378.956 140.515 378.991 140.51 379.029 140.51C379.066 140.51 379.098 140.516 379.126 140.528C379.155 140.541 379.177 140.56 379.193 140.587C379.209 140.614 379.217 140.649 379.217 140.692V141H379.149ZM378.986 141.012C378.947 141.012 378.914 141.005 378.888 140.991C378.863 140.977 378.844 140.959 378.831 140.936C378.818 140.914 378.812 140.891 378.812 140.866C378.812 140.834 378.82 140.807 378.836 140.787C378.852 140.767 378.874 140.752 378.902 140.742C378.93 140.733 378.962 140.728 378.997 140.728C379.022 140.728 379.047 140.73 379.072 140.735C379.097 140.74 379.122 140.747 379.146 140.756V140.805C379.126 140.797 379.103 140.791 379.078 140.786C379.053 140.781 379.03 140.779 379.009 140.779C378.977 140.779 378.95 140.786 378.928 140.799C378.906 140.812 378.895 140.834 378.895 140.866C378.895 140.889 378.903 140.909 378.92 140.926C378.937 140.943 378.964 140.951 379.001 140.951C379.027 140.951 379.05 140.945 379.071 140.933C379.092 140.921 379.108 140.905 379.12 140.887C379.133 140.869 379.139 140.85 379.139 140.832H379.158C379.158 140.864 379.151 140.894 379.137 140.921C379.123 140.948 379.104 140.97 379.078 140.987C379.052 141.004 379.022 141.012 378.986 141.012ZM379.404 141V140.318H379.482V141H379.404ZM379.834 140.372H379.922L380.085 140.931H380.062L380.229 140.437H380.282L380.447 140.927H380.425L380.612 140.372H380.699L380.477 141H380.395L380.25 140.574H380.265L380.115 141H380.033L379.834 140.372ZM380.956 141.012C380.913 141.012 380.874 141.003 380.841 140.984C380.807 140.964 380.781 140.936 380.762 140.899C380.742 140.862 380.733 140.816 380.733 140.761C380.733 140.706 380.742 140.66 380.762 140.623C380.781 140.586 380.807 140.557 380.841 140.538C380.874 140.519 380.913 140.51 380.956 140.51C380.998 140.51 381.036 140.519 381.07 140.538C381.103 140.557 381.13 140.586 381.149 140.623C381.168 140.66 381.178 140.706 381.178 140.761C381.178 140.816 381.168 140.862 381.149 140.899C381.13 140.936 381.103 140.964 381.07 140.984C381.036 141.003 380.998 141.012 380.956 141.012ZM380.954 140.944C380.985 140.944 381.011 140.937 381.033 140.922C381.054 140.907 381.071 140.886 381.082 140.858C381.093 140.831 381.099 140.799 381.099 140.761C381.099 140.704 381.087 140.659 381.063 140.626C381.039 140.593 381.004 140.577 380.958 140.577C380.926 140.577 380.9 140.584 380.878 140.599C380.857 140.614 380.84 140.635 380.829 140.663C380.818 140.69 380.813 140.723 380.813 140.761C380.813 140.817 380.824 140.862 380.848 140.895C380.872 140.928 380.907 140.944 380.954 140.944ZM381.33 141V140.521H381.408V141H381.33ZM381.384 140.784C381.384 140.723 381.389 140.673 381.401 140.633C381.413 140.593 381.43 140.563 381.452 140.543C381.475 140.523 381.502 140.513 381.535 140.513C381.545 140.513 381.555 140.514 381.564 140.515C381.573 140.517 381.582 140.519 381.591 140.522L381.586 140.599C381.576 140.596 381.566 140.593 381.555 140.591C381.544 140.589 381.534 140.588 381.526 140.588C381.497 140.588 381.474 140.596 381.457 140.612C381.44 140.628 381.427 140.651 381.419 140.68C381.411 140.71 381.408 140.744 381.408 140.784H381.384ZM381.691 141V140.318H381.769V141H381.691ZM382.142 141.012C382.103 141.012 382.068 141.002 382.036 140.981C382.003 140.96 381.977 140.931 381.958 140.893C381.939 140.855 381.929 140.81 381.929 140.759C381.929 140.708 381.939 140.664 381.958 140.626C381.977 140.589 382.002 140.56 382.033 140.54C382.065 140.52 382.099 140.51 382.137 140.51C382.172 140.51 382.203 140.518 382.229 140.535C382.256 140.552 382.276 140.577 382.291 140.609C382.306 140.641 382.313 140.68 382.313 140.725H382.283C382.283 140.693 382.277 140.667 382.264 140.645C382.252 140.623 382.236 140.607 382.216 140.596C382.196 140.585 382.174 140.579 382.151 140.579C382.125 140.579 382.101 140.586 382.08 140.601C382.058 140.615 382.041 140.636 382.028 140.663C382.015 140.69 382.009 140.722 382.009 140.759C382.009 140.797 382.015 140.83 382.028 140.857C382.041 140.884 382.058 140.905 382.08 140.92C382.101 140.935 382.125 140.942 382.151 140.942C382.173 140.942 382.194 140.936 382.214 140.925C382.234 140.914 382.251 140.897 382.264 140.875C382.277 140.853 382.283 140.827 382.283 140.796H382.313C382.313 140.842 382.305 140.882 382.29 140.914C382.275 140.946 382.255 140.97 382.229 140.987C382.203 141.004 382.174 141.012 382.142 141.012ZM382.296 141L382.283 140.888V140.318H382.361V141H382.296ZM383.023 141.012C382.971 141.012 382.925 141 382.884 140.976C382.843 140.952 382.81 140.916 382.787 140.868C382.763 140.82 382.751 140.759 382.751 140.687C382.751 140.614 382.763 140.553 382.787 140.505C382.81 140.457 382.843 140.421 382.884 140.397C382.925 140.373 382.971 140.361 383.023 140.361C383.075 140.361 383.122 140.373 383.163 140.397C383.204 140.421 383.236 140.457 383.26 140.505C383.283 140.554 383.295 140.614 383.295 140.687C383.295 140.76 383.283 140.821 383.26 140.869C383.236 140.917 383.204 140.953 383.163 140.976C383.122 141 383.075 141.012 383.023 141.012ZM383.023 140.94C383.082 140.94 383.129 140.918 383.163 140.875C383.197 140.832 383.214 140.769 383.214 140.686C383.214 140.604 383.197 140.541 383.163 140.498C383.129 140.453 383.082 140.431 383.023 140.431C382.965 140.431 382.918 140.453 382.884 140.498C382.849 140.542 382.832 140.605 382.832 140.687C382.832 140.77 382.849 140.833 382.884 140.876C382.918 140.919 382.965 140.94 383.023 140.94ZM383.447 141V140.521H383.525V141H383.447ZM383.501 140.784C383.501 140.723 383.507 140.673 383.518 140.633C383.53 140.593 383.547 140.563 383.569 140.543C383.592 140.523 383.619 140.513 383.652 140.513C383.662 140.513 383.672 140.514 383.681 140.515C383.69 140.517 383.699 140.519 383.708 140.522L383.703 140.599C383.693 140.596 383.683 140.593 383.672 140.591C383.661 140.589 383.651 140.588 383.643 140.588C383.614 140.588 383.592 140.596 383.574 140.612C383.557 140.628 383.544 140.651 383.536 140.68C383.529 140.71 383.525 140.744 383.525 140.784H383.501ZM383.979 141.012C383.94 141.012 383.905 141.002 383.873 140.981C383.84 140.96 383.814 140.931 383.795 140.893C383.776 140.855 383.766 140.81 383.766 140.759C383.766 140.708 383.776 140.664 383.795 140.626C383.814 140.589 383.839 140.56 383.87 140.54C383.902 140.52 383.936 140.51 383.974 140.51C384.009 140.51 384.04 140.518 384.066 140.535C384.093 140.552 384.113 140.577 384.128 140.609C384.143 140.641 384.15 140.68 384.15 140.725H384.12C384.12 140.693 384.114 140.667 384.101 140.645C384.089 140.623 384.073 140.607 384.053 140.596C384.033 140.585 384.011 140.579 383.988 140.579C383.962 140.579 383.938 140.586 383.917 140.601C383.895 140.615 383.878 140.636 383.865 140.663C383.852 140.69 383.846 140.722 383.846 140.759C383.846 140.797 383.852 140.83 383.865 140.857C383.878 140.884 383.895 140.905 383.917 140.92C383.938 140.935 383.962 140.942 383.988 140.942C384.01 140.942 384.031 140.936 384.051 140.925C384.071 140.914 384.088 140.897 384.101 140.875C384.114 140.853 384.12 140.827 384.12 140.796H384.15C384.15 140.842 384.142 140.882 384.127 140.914C384.112 140.946 384.092 140.97 384.066 140.987C384.04 141.004 384.011 141.012 383.979 141.012ZM384.133 141L384.12 140.888V140.318H384.198V141H384.133ZM384.567 141.012C384.525 141.012 384.488 141.001 384.456 140.98C384.423 140.959 384.398 140.93 384.379 140.892C384.36 140.854 384.351 140.811 384.351 140.762C384.351 140.71 384.36 140.665 384.379 140.627C384.397 140.589 384.423 140.56 384.455 140.54C384.488 140.52 384.525 140.51 384.567 140.51C384.603 140.51 384.634 140.517 384.66 140.532C384.685 140.547 384.706 140.566 384.722 140.591C384.737 140.616 384.748 140.645 384.754 140.676C384.761 140.708 384.762 140.74 384.76 140.774H384.414V140.726H384.708L384.685 140.741C384.686 140.721 384.685 140.702 384.682 140.682C384.679 140.662 384.673 140.644 384.664 140.628C384.656 140.611 384.643 140.598 384.628 140.588C384.612 140.578 384.592 140.573 384.568 140.573C384.537 140.573 384.511 140.581 384.491 140.596C384.47 140.612 384.455 140.633 384.444 140.658C384.434 140.684 384.429 140.711 384.429 140.741V140.773C384.429 140.806 384.434 140.836 384.444 140.862C384.454 140.889 384.469 140.91 384.49 140.925C384.51 140.94 384.536 140.948 384.567 140.948C384.598 140.948 384.623 140.94 384.643 140.925C384.663 140.91 384.675 140.888 384.68 140.859H384.761C384.756 140.891 384.744 140.918 384.727 140.941C384.709 140.964 384.687 140.981 384.659 140.993C384.632 141.006 384.601 141.012 384.567 141.012ZM384.914 141V140.521H384.992V141H384.914ZM384.968 140.784C384.968 140.723 384.974 140.673 384.986 140.633C384.998 140.593 385.015 140.563 385.037 140.543C385.06 140.523 385.087 140.513 385.119 140.513C385.13 140.513 385.14 140.514 385.148 140.515C385.157 140.517 385.166 140.519 385.175 140.522L385.17 140.599C385.161 140.596 385.151 140.593 385.14 140.591C385.129 140.589 385.119 140.588 385.11 140.588C385.082 140.588 385.059 140.596 385.042 140.612C385.025 140.628 385.012 140.651 385.004 140.68C384.996 140.71 384.992 140.744 384.992 140.784H384.968Z" fill="black"/>
<path d="M387.1 141V140.372H387.487V140.439H387.178V140.65H387.469V140.717H387.178V140.932H387.487V141H387.1ZM387.829 141.012C387.791 141.012 387.755 141.002 387.722 140.982C387.689 140.962 387.663 140.933 387.643 140.895C387.623 140.858 387.613 140.813 387.613 140.76C387.613 140.708 387.623 140.663 387.643 140.626C387.663 140.589 387.689 140.56 387.721 140.54C387.754 140.52 387.789 140.51 387.826 140.51C387.858 140.51 387.888 140.518 387.914 140.534C387.941 140.55 387.962 140.574 387.977 140.605C387.993 140.637 388.001 140.676 388.001 140.722H387.967C387.967 140.691 387.96 140.665 387.948 140.644C387.936 140.623 387.92 140.606 387.9 140.595C387.88 140.584 387.858 140.579 387.836 140.579C387.81 140.579 387.786 140.586 387.764 140.6C387.742 140.615 387.725 140.635 387.712 140.662C387.699 140.689 387.693 140.722 387.693 140.76C387.693 140.8 387.699 140.833 387.713 140.86C387.727 140.887 387.745 140.907 387.767 140.921C387.789 140.935 387.812 140.942 387.837 140.942C387.859 140.942 387.879 140.937 387.899 140.927C387.919 140.916 387.935 140.901 387.948 140.88C387.96 140.86 387.967 140.835 387.967 140.805H387.99C387.99 140.846 387.983 140.882 387.971 140.913C387.959 140.944 387.941 140.969 387.917 140.986C387.893 141.003 387.863 141.012 387.829 141.012ZM388.091 141.246C388.045 141.233 388.013 141.214 387.995 141.188C387.976 141.161 387.967 141.124 387.967 141.076V140.634L387.991 140.522H388.044V141.081C388.044 141.104 388.046 141.122 388.05 141.135C388.054 141.148 388.062 141.158 388.073 141.165C388.083 141.173 388.098 141.18 388.117 141.186L388.091 141.246ZM388.572 140.521H388.65V141H388.572V140.521ZM388.233 140.521H388.311V140.819C388.311 140.859 388.321 140.889 388.34 140.91C388.36 140.931 388.388 140.941 388.424 140.941C388.454 140.941 388.48 140.933 388.502 140.917C388.525 140.901 388.542 140.879 388.554 140.851C388.566 140.823 388.572 140.79 388.572 140.754H388.601C388.601 140.808 388.594 140.853 388.578 140.891C388.563 140.929 388.541 140.959 388.512 140.979C388.484 140.999 388.451 141.009 388.413 141.009C388.377 141.009 388.346 141.002 388.319 140.989C388.292 140.976 388.271 140.955 388.256 140.928C388.241 140.901 388.233 140.867 388.233 140.825V140.521ZM389.149 141L389.139 140.895V140.69C389.139 140.647 389.13 140.616 389.111 140.597C389.093 140.578 389.066 140.569 389.029 140.569C389.008 140.569 388.989 140.572 388.972 140.578C388.956 140.584 388.942 140.593 388.932 140.606C388.923 140.618 388.918 140.634 388.918 140.654H388.831C388.831 140.619 388.839 140.591 388.856 140.57C388.873 140.549 388.897 140.534 388.926 140.524C388.956 140.515 388.991 140.51 389.029 140.51C389.066 140.51 389.098 140.516 389.126 140.528C389.155 140.541 389.177 140.56 389.193 140.587C389.209 140.614 389.217 140.649 389.217 140.692V141H389.149ZM388.986 141.012C388.947 141.012 388.914 141.005 388.888 140.991C388.863 140.977 388.844 140.959 388.831 140.936C388.818 140.914 388.812 140.891 388.812 140.866C388.812 140.834 388.82 140.807 388.836 140.787C388.852 140.767 388.874 140.752 388.902 140.742C388.93 140.733 388.962 140.728 388.997 140.728C389.022 140.728 389.047 140.73 389.072 140.735C389.097 140.74 389.122 140.747 389.146 140.756V140.805C389.126 140.797 389.103 140.791 389.078 140.786C389.053 140.781 389.03 140.779 389.009 140.779C388.977 140.779 388.95 140.786 388.928 140.799C388.906 140.812 388.895 140.834 388.895 140.866C388.895 140.889 388.903 140.909 388.92 140.926C388.937 140.943 388.964 140.951 389.001 140.951C389.027 140.951 389.05 140.945 389.071 140.933C389.092 140.921 389.108 140.905 389.12 140.887C389.133 140.869 389.139 140.85 389.139 140.832H389.158C389.158 140.864 389.151 140.894 389.137 140.921C389.123 140.948 389.104 140.97 389.078 140.987C389.052 141.004 389.022 141.012 388.986 141.012ZM389.404 141V140.318H389.482V141H389.404ZM389.834 140.372H389.922L390.085 140.931H390.062L390.229 140.437H390.282L390.447 140.927H390.425L390.612 140.372H390.699L390.477 141H390.395L390.25 140.574H390.265L390.115 141H390.033L389.834 140.372ZM390.956 141.012C390.913 141.012 390.874 141.003 390.841 140.984C390.807 140.964 390.781 140.936 390.762 140.899C390.742 140.862 390.733 140.816 390.733 140.761C390.733 140.706 390.742 140.66 390.762 140.623C390.781 140.586 390.807 140.557 390.841 140.538C390.874 140.519 390.913 140.51 390.956 140.51C390.998 140.51 391.036 140.519 391.07 140.538C391.103 140.557 391.13 140.586 391.149 140.623C391.168 140.66 391.178 140.706 391.178 140.761C391.178 140.816 391.168 140.862 391.149 140.899C391.13 140.936 391.103 140.964 391.07 140.984C391.036 141.003 390.998 141.012 390.956 141.012ZM390.954 140.944C390.985 140.944 391.011 140.937 391.033 140.922C391.054 140.907 391.071 140.886 391.082 140.858C391.093 140.831 391.099 140.799 391.099 140.761C391.099 140.704 391.087 140.659 391.063 140.626C391.039 140.593 391.004 140.577 390.958 140.577C390.926 140.577 390.9 140.584 390.878 140.599C390.857 140.614 390.84 140.635 390.829 140.663C390.818 140.69 390.813 140.723 390.813 140.761C390.813 140.817 390.824 140.862 390.848 140.895C390.872 140.928 390.907 140.944 390.954 140.944ZM391.33 141V140.521H391.408V141H391.33ZM391.384 140.784C391.384 140.723 391.389 140.673 391.401 140.633C391.413 140.593 391.43 140.563 391.452 140.543C391.475 140.523 391.502 140.513 391.535 140.513C391.545 140.513 391.555 140.514 391.564 140.515C391.573 140.517 391.582 140.519 391.591 140.522L391.586 140.599C391.576 140.596 391.566 140.593 391.555 140.591C391.544 140.589 391.534 140.588 391.526 140.588C391.497 140.588 391.474 140.596 391.457 140.612C391.44 140.628 391.427 140.651 391.419 140.68C391.411 140.71 391.408 140.744 391.408 140.784H391.384ZM391.691 141V140.318H391.769V141H391.691ZM392.142 141.012C392.103 141.012 392.068 141.002 392.036 140.981C392.003 140.96 391.977 140.931 391.958 140.893C391.939 140.855 391.929 140.81 391.929 140.759C391.929 140.708 391.939 140.664 391.958 140.626C391.977 140.589 392.002 140.56 392.033 140.54C392.065 140.52 392.099 140.51 392.137 140.51C392.172 140.51 392.203 140.518 392.229 140.535C392.256 140.552 392.276 140.577 392.291 140.609C392.306 140.641 392.313 140.68 392.313 140.725H392.283C392.283 140.693 392.277 140.667 392.264 140.645C392.252 140.623 392.236 140.607 392.216 140.596C392.196 140.585 392.174 140.579 392.151 140.579C392.125 140.579 392.101 140.586 392.08 140.601C392.058 140.615 392.041 140.636 392.028 140.663C392.015 140.69 392.009 140.722 392.009 140.759C392.009 140.797 392.015 140.83 392.028 140.857C392.041 140.884 392.058 140.905 392.08 140.92C392.101 140.935 392.125 140.942 392.151 140.942C392.173 140.942 392.194 140.936 392.214 140.925C392.234 140.914 392.251 140.897 392.264 140.875C392.277 140.853 392.283 140.827 392.283 140.796H392.313C392.313 140.842 392.305 140.882 392.29 140.914C392.275 140.946 392.255 140.97 392.229 140.987C392.203 141.004 392.174 141.012 392.142 141.012ZM392.296 141L392.283 140.888V140.318H392.361V141H392.296ZM393.023 141.012C392.971 141.012 392.925 141 392.884 140.976C392.843 140.952 392.81 140.916 392.787 140.868C392.763 140.82 392.751 140.759 392.751 140.687C392.751 140.614 392.763 140.553 392.787 140.505C392.81 140.457 392.843 140.421 392.884 140.397C392.925 140.373 392.971 140.361 393.023 140.361C393.075 140.361 393.122 140.373 393.163 140.397C393.204 140.421 393.236 140.457 393.26 140.505C393.283 140.554 393.295 140.614 393.295 140.687C393.295 140.76 393.283 140.821 393.26 140.869C393.236 140.917 393.204 140.953 393.163 140.976C393.122 141 393.075 141.012 393.023 141.012ZM393.023 140.94C393.082 140.94 393.129 140.918 393.163 140.875C393.197 140.832 393.214 140.769 393.214 140.686C393.214 140.604 393.197 140.541 393.163 140.498C393.129 140.453 393.082 140.431 393.023 140.431C392.965 140.431 392.918 140.453 392.884 140.498C392.849 140.542 392.832 140.605 392.832 140.687C392.832 140.77 392.849 140.833 392.884 140.876C392.918 140.919 392.965 140.94 393.023 140.94ZM393.447 141V140.521H393.525V141H393.447ZM393.501 140.784C393.501 140.723 393.507 140.673 393.518 140.633C393.53 140.593 393.547 140.563 393.569 140.543C393.592 140.523 393.619 140.513 393.652 140.513C393.662 140.513 393.672 140.514 393.681 140.515C393.69 140.517 393.699 140.519 393.708 140.522L393.703 140.599C393.693 140.596 393.683 140.593 393.672 140.591C393.661 140.589 393.651 140.588 393.643 140.588C393.614 140.588 393.592 140.596 393.574 140.612C393.557 140.628 393.544 140.651 393.536 140.68C393.529 140.71 393.525 140.744 393.525 140.784H393.501ZM393.979 141.012C393.94 141.012 393.905 141.002 393.873 140.981C393.84 140.96 393.814 140.931 393.795 140.893C393.776 140.855 393.766 140.81 393.766 140.759C393.766 140.708 393.776 140.664 393.795 140.626C393.814 140.589 393.839 140.56 393.87 140.54C393.902 140.52 393.936 140.51 393.974 140.51C394.009 140.51 394.04 140.518 394.066 140.535C394.093 140.552 394.113 140.577 394.128 140.609C394.143 140.641 394.15 140.68 394.15 140.725H394.12C394.12 140.693 394.114 140.667 394.101 140.645C394.089 140.623 394.073 140.607 394.053 140.596C394.033 140.585 394.011 140.579 393.988 140.579C393.962 140.579 393.938 140.586 393.917 140.601C393.895 140.615 393.878 140.636 393.865 140.663C393.852 140.69 393.846 140.722 393.846 140.759C393.846 140.797 393.852 140.83 393.865 140.857C393.878 140.884 393.895 140.905 393.917 140.92C393.938 140.935 393.962 140.942 393.988 140.942C394.01 140.942 394.031 140.936 394.051 140.925C394.071 140.914 394.088 140.897 394.101 140.875C394.114 140.853 394.12 140.827 394.12 140.796H394.15C394.15 140.842 394.142 140.882 394.127 140.914C394.112 140.946 394.092 140.97 394.066 140.987C394.04 141.004 394.011 141.012 393.979 141.012ZM394.133 141L394.12 140.888V140.318H394.198V141H394.133ZM394.567 141.012C394.525 141.012 394.488 141.001 394.456 140.98C394.423 140.959 394.398 140.93 394.379 140.892C394.36 140.854 394.351 140.811 394.351 140.762C394.351 140.71 394.36 140.665 394.379 140.627C394.397 140.589 394.423 140.56 394.455 140.54C394.488 140.52 394.525 140.51 394.567 140.51C394.603 140.51 394.634 140.517 394.66 140.532C394.685 140.547 394.706 140.566 394.722 140.591C394.737 140.616 394.748 140.645 394.754 140.676C394.761 140.708 394.762 140.74 394.76 140.774H394.414V140.726H394.708L394.685 140.741C394.686 140.721 394.685 140.702 394.682 140.682C394.679 140.662 394.673 140.644 394.664 140.628C394.656 140.611 394.643 140.598 394.628 140.588C394.612 140.578 394.592 140.573 394.568 140.573C394.537 140.573 394.511 140.581 394.491 140.596C394.47 140.612 394.455 140.633 394.444 140.658C394.434 140.684 394.429 140.711 394.429 140.741V140.773C394.429 140.806 394.434 140.836 394.444 140.862C394.454 140.889 394.469 140.91 394.49 140.925C394.51 140.94 394.536 140.948 394.567 140.948C394.598 140.948 394.623 140.94 394.643 140.925C394.663 140.91 394.675 140.888 394.68 140.859H394.761C394.756 140.891 394.744 140.918 394.727 140.941C394.709 140.964 394.687 140.981 394.659 140.993C394.632 141.006 394.601 141.012 394.567 141.012ZM394.914 141V140.521H394.992V141H394.914ZM394.968 140.784C394.968 140.723 394.974 140.673 394.986 140.633C394.998 140.593 395.015 140.563 395.037 140.543C395.06 140.523 395.087 140.513 395.119 140.513C395.13 140.513 395.14 140.514 395.148 140.515C395.157 140.517 395.166 140.519 395.175 140.522L395.17 140.599C395.161 140.596 395.151 140.593 395.14 140.591C395.129 140.589 395.119 140.588 395.11 140.588C395.082 140.588 395.059 140.596 395.042 140.612C395.025 140.628 395.012 140.651 395.004 140.68C394.996 140.71 394.992 140.744 394.992 140.784H394.968Z" fill="black"/>
<path d="M397.1 141V140.372H397.487V140.439H397.178V140.65H397.469V140.717H397.178V140.932H397.487V141H397.1ZM397.829 141.012C397.791 141.012 397.755 141.002 397.722 140.982C397.689 140.962 397.663 140.933 397.643 140.895C397.623 140.858 397.613 140.813 397.613 140.76C397.613 140.708 397.623 140.663 397.643 140.626C397.663 140.589 397.689 140.56 397.721 140.54C397.754 140.52 397.789 140.51 397.826 140.51C397.858 140.51 397.888 140.518 397.914 140.534C397.941 140.55 397.962 140.574 397.977 140.605C397.993 140.637 398.001 140.676 398.001 140.722H397.967C397.967 140.691 397.96 140.665 397.948 140.644C397.936 140.623 397.92 140.606 397.9 140.595C397.88 140.584 397.858 140.579 397.836 140.579C397.81 140.579 397.786 140.586 397.764 140.6C397.742 140.615 397.725 140.635 397.712 140.662C397.699 140.689 397.693 140.722 397.693 140.76C397.693 140.8 397.699 140.833 397.713 140.86C397.727 140.887 397.745 140.907 397.767 140.921C397.789 140.935 397.812 140.942 397.837 140.942C397.859 140.942 397.879 140.937 397.899 140.927C397.919 140.916 397.935 140.901 397.948 140.88C397.96 140.86 397.967 140.835 397.967 140.805H397.99C397.99 140.846 397.983 140.882 397.971 140.913C397.959 140.944 397.941 140.969 397.917 140.986C397.893 141.003 397.863 141.012 397.829 141.012ZM398.091 141.246C398.045 141.233 398.013 141.214 397.995 141.188C397.976 141.161 397.967 141.124 397.967 141.076V140.634L397.991 140.522H398.044V141.081C398.044 141.104 398.046 141.122 398.05 141.135C398.054 141.148 398.062 141.158 398.073 141.165C398.083 141.173 398.098 141.18 398.117 141.186L398.091 141.246ZM398.572 140.521H398.65V141H398.572V140.521ZM398.233 140.521H398.311V140.819C398.311 140.859 398.321 140.889 398.34 140.91C398.36 140.931 398.388 140.941 398.424 140.941C398.454 140.941 398.48 140.933 398.502 140.917C398.525 140.901 398.542 140.879 398.554 140.851C398.566 140.823 398.572 140.79 398.572 140.754H398.601C398.601 140.808 398.594 140.853 398.578 140.891C398.563 140.929 398.541 140.959 398.512 140.979C398.484 140.999 398.451 141.009 398.413 141.009C398.377 141.009 398.346 141.002 398.319 140.989C398.292 140.976 398.271 140.955 398.256 140.928C398.241 140.901 398.233 140.867 398.233 140.825V140.521ZM399.149 141L399.139 140.895V140.69C399.139 140.647 399.13 140.616 399.111 140.597C399.093 140.578 399.066 140.569 399.029 140.569C399.008 140.569 398.989 140.572 398.972 140.578C398.956 140.584 398.942 140.593 398.932 140.606C398.923 140.618 398.918 140.634 398.918 140.654H398.831C398.831 140.619 398.839 140.591 398.856 140.57C398.873 140.549 398.897 140.534 398.926 140.524C398.956 140.515 398.991 140.51 399.029 140.51C399.066 140.51 399.098 140.516 399.126 140.528C399.155 140.541 399.177 140.56 399.193 140.587C399.209 140.614 399.217 140.649 399.217 140.692V141H399.149ZM398.986 141.012C398.947 141.012 398.914 141.005 398.888 140.991C398.863 140.977 398.844 140.959 398.831 140.936C398.818 140.914 398.812 140.891 398.812 140.866C398.812 140.834 398.82 140.807 398.836 140.787C398.852 140.767 398.874 140.752 398.902 140.742C398.93 140.733 398.962 140.728 398.997 140.728C399.022 140.728 399.047 140.73 399.072 140.735C399.097 140.74 399.122 140.747 399.146 140.756V140.805C399.126 140.797 399.103 140.791 399.078 140.786C399.053 140.781 399.03 140.779 399.009 140.779C398.977 140.779 398.95 140.786 398.928 140.799C398.906 140.812 398.895 140.834 398.895 140.866C398.895 140.889 398.903 140.909 398.92 140.926C398.937 140.943 398.964 140.951 399.001 140.951C399.027 140.951 399.05 140.945 399.071 140.933C399.092 140.921 399.108 140.905 399.12 140.887C399.133 140.869 399.139 140.85 399.139 140.832H399.158C399.158 140.864 399.151 140.894 399.137 140.921C399.123 140.948 399.104 140.97 399.078 140.987C399.052 141.004 399.022 141.012 398.986 141.012ZM399.404 141V140.318H399.482V141H399.404ZM399.834 140.372H399.922L400.085 140.931H400.062L400.229 140.437H400.282L400.447 140.927H400.425L400.612 140.372H400.699L400.477 141H400.395L400.25 140.574H400.265L400.115 141H400.033L399.834 140.372ZM400.956 141.012C400.913 141.012 400.874 141.003 400.841 140.984C400.807 140.964 400.781 140.936 400.762 140.899C400.742 140.862 400.733 140.816 400.733 140.761C400.733 140.706 400.742 140.66 400.762 140.623C400.781 140.586 400.807 140.557 400.841 140.538C400.874 140.519 400.913 140.51 400.956 140.51C400.998 140.51 401.036 140.519 401.07 140.538C401.103 140.557 401.13 140.586 401.149 140.623C401.168 140.66 401.178 140.706 401.178 140.761C401.178 140.816 401.168 140.862 401.149 140.899C401.13 140.936 401.103 140.964 401.07 140.984C401.036 141.003 400.998 141.012 400.956 141.012ZM400.954 140.944C400.985 140.944 401.011 140.937 401.033 140.922C401.054 140.907 401.071 140.886 401.082 140.858C401.093 140.831 401.099 140.799 401.099 140.761C401.099 140.704 401.087 140.659 401.063 140.626C401.039 140.593 401.004 140.577 400.958 140.577C400.926 140.577 400.9 140.584 400.878 140.599C400.857 140.614 400.84 140.635 400.829 140.663C400.818 140.69 400.813 140.723 400.813 140.761C400.813 140.817 400.824 140.862 400.848 140.895C400.872 140.928 400.907 140.944 400.954 140.944ZM401.33 141V140.521H401.408V141H401.33ZM401.384 140.784C401.384 140.723 401.389 140.673 401.401 140.633C401.413 140.593 401.43 140.563 401.452 140.543C401.475 140.523 401.502 140.513 401.535 140.513C401.545 140.513 401.555 140.514 401.564 140.515C401.573 140.517 401.582 140.519 401.591 140.522L401.586 140.599C401.576 140.596 401.566 140.593 401.555 140.591C401.544 140.589 401.534 140.588 401.526 140.588C401.497 140.588 401.474 140.596 401.457 140.612C401.44 140.628 401.427 140.651 401.419 140.68C401.411 140.71 401.408 140.744 401.408 140.784H401.384ZM401.691 141V140.318H401.769V141H401.691ZM402.142 141.012C402.103 141.012 402.068 141.002 402.036 140.981C402.003 140.96 401.977 140.931 401.958 140.893C401.939 140.855 401.929 140.81 401.929 140.759C401.929 140.708 401.939 140.664 401.958 140.626C401.977 140.589 402.002 140.56 402.033 140.54C402.065 140.52 402.099 140.51 402.137 140.51C402.172 140.51 402.203 140.518 402.229 140.535C402.256 140.552 402.276 140.577 402.291 140.609C402.306 140.641 402.313 140.68 402.313 140.725H402.283C402.283 140.693 402.277 140.667 402.264 140.645C402.252 140.623 402.236 140.607 402.216 140.596C402.196 140.585 402.174 140.579 402.151 140.579C402.125 140.579 402.101 140.586 402.08 140.601C402.058 140.615 402.041 140.636 402.028 140.663C402.015 140.69 402.009 140.722 402.009 140.759C402.009 140.797 402.015 140.83 402.028 140.857C402.041 140.884 402.058 140.905 402.08 140.92C402.101 140.935 402.125 140.942 402.151 140.942C402.173 140.942 402.194 140.936 402.214 140.925C402.234 140.914 402.251 140.897 402.264 140.875C402.277 140.853 402.283 140.827 402.283 140.796H402.313C402.313 140.842 402.305 140.882 402.29 140.914C402.275 140.946 402.255 140.97 402.229 140.987C402.203 141.004 402.174 141.012 402.142 141.012ZM402.296 141L402.283 140.888V140.318H402.361V141H402.296ZM403.023 141.012C402.971 141.012 402.925 141 402.884 140.976C402.843 140.952 402.81 140.916 402.787 140.868C402.763 140.82 402.751 140.759 402.751 140.687C402.751 140.614 402.763 140.553 402.787 140.505C402.81 140.457 402.843 140.421 402.884 140.397C402.925 140.373 402.971 140.361 403.023 140.361C403.075 140.361 403.122 140.373 403.163 140.397C403.204 140.421 403.236 140.457 403.26 140.505C403.283 140.554 403.295 140.614 403.295 140.687C403.295 140.76 403.283 140.821 403.26 140.869C403.236 140.917 403.204 140.953 403.163 140.976C403.122 141 403.075 141.012 403.023 141.012ZM403.023 140.94C403.082 140.94 403.129 140.918 403.163 140.875C403.197 140.832 403.214 140.769 403.214 140.686C403.214 140.604 403.197 140.541 403.163 140.498C403.129 140.453 403.082 140.431 403.023 140.431C402.965 140.431 402.918 140.453 402.884 140.498C402.849 140.542 402.832 140.605 402.832 140.687C402.832 140.77 402.849 140.833 402.884 140.876C402.918 140.919 402.965 140.94 403.023 140.94ZM403.447 141V140.521H403.525V141H403.447ZM403.501 140.784C403.501 140.723 403.507 140.673 403.518 140.633C403.53 140.593 403.547 140.563 403.569 140.543C403.592 140.523 403.619 140.513 403.652 140.513C403.662 140.513 403.672 140.514 403.681 140.515C403.69 140.517 403.699 140.519 403.708 140.522L403.703 140.599C403.693 140.596 403.683 140.593 403.672 140.591C403.661 140.589 403.651 140.588 403.643 140.588C403.614 140.588 403.592 140.596 403.574 140.612C403.557 140.628 403.544 140.651 403.536 140.68C403.529 140.71 403.525 140.744 403.525 140.784H403.501ZM403.979 141.012C403.94 141.012 403.905 141.002 403.873 140.981C403.84 140.96 403.814 140.931 403.795 140.893C403.776 140.855 403.766 140.81 403.766 140.759C403.766 140.708 403.776 140.664 403.795 140.626C403.814 140.589 403.839 140.56 403.87 140.54C403.902 140.52 403.936 140.51 403.974 140.51C404.009 140.51 404.04 140.518 404.066 140.535C404.093 140.552 404.113 140.577 404.128 140.609C404.143 140.641 404.15 140.68 404.15 140.725H404.12C404.12 140.693 404.114 140.667 404.101 140.645C404.089 140.623 404.073 140.607 404.053 140.596C404.033 140.585 404.011 140.579 403.988 140.579C403.962 140.579 403.938 140.586 403.917 140.601C403.895 140.615 403.878 140.636 403.865 140.663C403.852 140.69 403.846 140.722 403.846 140.759C403.846 140.797 403.852 140.83 403.865 140.857C403.878 140.884 403.895 140.905 403.917 140.92C403.938 140.935 403.962 140.942 403.988 140.942C404.01 140.942 404.031 140.936 404.051 140.925C404.071 140.914 404.088 140.897 404.101 140.875C404.114 140.853 404.12 140.827 404.12 140.796H404.15C404.15 140.842 404.142 140.882 404.127 140.914C404.112 140.946 404.092 140.97 404.066 140.987C404.04 141.004 404.011 141.012 403.979 141.012ZM404.133 141L404.12 140.888V140.318H404.198V141H404.133ZM404.567 141.012C404.525 141.012 404.488 141.001 404.456 140.98C404.423 140.959 404.398 140.93 404.379 140.892C404.36 140.854 404.351 140.811 404.351 140.762C404.351 140.71 404.36 140.665 404.379 140.627C404.397 140.589 404.423 140.56 404.455 140.54C404.488 140.52 404.525 140.51 404.567 140.51C404.603 140.51 404.634 140.517 404.66 140.532C404.685 140.547 404.706 140.566 404.722 140.591C404.737 140.616 404.748 140.645 404.754 140.676C404.761 140.708 404.762 140.74 404.76 140.774H404.414V140.726H404.708L404.685 140.741C404.686 140.721 404.685 140.702 404.682 140.682C404.679 140.662 404.673 140.644 404.664 140.628C404.656 140.611 404.643 140.598 404.628 140.588C404.612 140.578 404.592 140.573 404.568 140.573C404.537 140.573 404.511 140.581 404.491 140.596C404.47 140.612 404.455 140.633 404.444 140.658C404.434 140.684 404.429 140.711 404.429 140.741V140.773C404.429 140.806 404.434 140.836 404.444 140.862C404.454 140.889 404.469 140.91 404.49 140.925C404.51 140.94 404.536 140.948 404.567 140.948C404.598 140.948 404.623 140.94 404.643 140.925C404.663 140.91 404.675 140.888 404.68 140.859H404.761C404.756 140.891 404.744 140.918 404.727 140.941C404.709 140.964 404.687 140.981 404.659 140.993C404.632 141.006 404.601 141.012 404.567 141.012ZM404.914 141V140.521H404.992V141H404.914ZM404.968 140.784C404.968 140.723 404.974 140.673 404.986 140.633C404.998 140.593 405.015 140.563 405.037 140.543C405.06 140.523 405.087 140.513 405.119 140.513C405.13 140.513 405.14 140.514 405.148 140.515C405.157 140.517 405.166 140.519 405.175 140.522L405.17 140.599C405.161 140.596 405.151 140.593 405.14 140.591C405.129 140.589 405.119 140.588 405.11 140.588C405.082 140.588 405.059 140.596 405.042 140.612C405.025 140.628 405.012 140.651 405.004 140.68C404.996 140.71 404.992 140.744 404.992 140.784H404.968Z" fill="black"/>
<path d="M407.1 141V140.372H407.487V140.439H407.178V140.65H407.469V140.717H407.178V140.932H407.487V141H407.1ZM407.829 141.012C407.791 141.012 407.755 141.002 407.722 140.982C407.689 140.962 407.663 140.933 407.643 140.895C407.623 140.858 407.613 140.813 407.613 140.76C407.613 140.708 407.623 140.663 407.643 140.626C407.663 140.589 407.689 140.56 407.721 140.54C407.754 140.52 407.789 140.51 407.826 140.51C407.858 140.51 407.888 140.518 407.914 140.534C407.941 140.55 407.962 140.574 407.977 140.605C407.993 140.637 408.001 140.676 408.001 140.722H407.967C407.967 140.691 407.96 140.665 407.948 140.644C407.936 140.623 407.92 140.606 407.9 140.595C407.88 140.584 407.858 140.579 407.836 140.579C407.81 140.579 407.786 140.586 407.764 140.6C407.742 140.615 407.725 140.635 407.712 140.662C407.699 140.689 407.693 140.722 407.693 140.76C407.693 140.8 407.699 140.833 407.713 140.86C407.727 140.887 407.745 140.907 407.767 140.921C407.789 140.935 407.812 140.942 407.837 140.942C407.859 140.942 407.879 140.937 407.899 140.927C407.919 140.916 407.935 140.901 407.948 140.88C407.96 140.86 407.967 140.835 407.967 140.805H407.99C407.99 140.846 407.983 140.882 407.971 140.913C407.959 140.944 407.941 140.969 407.917 140.986C407.893 141.003 407.863 141.012 407.829 141.012ZM408.091 141.246C408.045 141.233 408.013 141.214 407.995 141.188C407.976 141.161 407.967 141.124 407.967 141.076V140.634L407.991 140.522H408.044V141.081C408.044 141.104 408.046 141.122 408.05 141.135C408.054 141.148 408.062 141.158 408.073 141.165C408.083 141.173 408.098 141.18 408.117 141.186L408.091 141.246ZM408.572 140.521H408.65V141H408.572V140.521ZM408.233 140.521H408.311V140.819C408.311 140.859 408.321 140.889 408.34 140.91C408.36 140.931 408.388 140.941 408.424 140.941C408.454 140.941 408.48 140.933 408.502 140.917C408.525 140.901 408.542 140.879 408.554 140.851C408.566 140.823 408.572 140.79 408.572 140.754H408.601C408.601 140.808 408.594 140.853 408.578 140.891C408.563 140.929 408.541 140.959 408.512 140.979C408.484 140.999 408.451 141.009 408.413 141.009C408.377 141.009 408.346 141.002 408.319 140.989C408.292 140.976 408.271 140.955 408.256 140.928C408.241 140.901 408.233 140.867 408.233 140.825V140.521ZM409.149 141L409.139 140.895V140.69C409.139 140.647 409.13 140.616 409.111 140.597C409.093 140.578 409.066 140.569 409.029 140.569C409.008 140.569 408.989 140.572 408.972 140.578C408.956 140.584 408.942 140.593 408.932 140.606C408.923 140.618 408.918 140.634 408.918 140.654H408.831C408.831 140.619 408.839 140.591 408.856 140.57C408.873 140.549 408.897 140.534 408.926 140.524C408.956 140.515 408.991 140.51 409.029 140.51C409.066 140.51 409.098 140.516 409.126 140.528C409.155 140.541 409.177 140.56 409.193 140.587C409.209 140.614 409.217 140.649 409.217 140.692V141H409.149ZM408.986 141.012C408.947 141.012 408.914 141.005 408.888 140.991C408.863 140.977 408.844 140.959 408.831 140.936C408.818 140.914 408.812 140.891 408.812 140.866C408.812 140.834 408.82 140.807 408.836 140.787C408.852 140.767 408.874 140.752 408.902 140.742C408.93 140.733 408.962 140.728 408.997 140.728C409.022 140.728 409.047 140.73 409.072 140.735C409.097 140.74 409.122 140.747 409.146 140.756V140.805C409.126 140.797 409.103 140.791 409.078 140.786C409.053 140.781 409.03 140.779 409.009 140.779C408.977 140.779 408.95 140.786 408.928 140.799C408.906 140.812 408.895 140.834 408.895 140.866C408.895 140.889 408.903 140.909 408.92 140.926C408.937 140.943 408.964 140.951 409.001 140.951C409.027 140.951 409.05 140.945 409.071 140.933C409.092 140.921 409.108 140.905 409.12 140.887C409.133 140.869 409.139 140.85 409.139 140.832H409.158C409.158 140.864 409.151 140.894 409.137 140.921C409.123 140.948 409.104 140.97 409.078 140.987C409.052 141.004 409.022 141.012 408.986 141.012ZM409.404 141V140.318H409.482V141H409.404ZM409.834 140.372H409.922L410.085 140.931H410.062L410.229 140.437H410.282L410.447 140.927H410.425L410.612 140.372H410.699L410.477 141H410.395L410.25 140.574H410.265L410.115 141H410.033L409.834 140.372ZM410.956 141.012C410.913 141.012 410.874 141.003 410.841 140.984C410.807 140.964 410.781 140.936 410.762 140.899C410.742 140.862 410.733 140.816 410.733 140.761C410.733 140.706 410.742 140.66 410.762 140.623C410.781 140.586 410.807 140.557 410.841 140.538C410.874 140.519 410.913 140.51 410.956 140.51C410.998 140.51 411.036 140.519 411.07 140.538C411.103 140.557 411.13 140.586 411.149 140.623C411.168 140.66 411.178 140.706 411.178 140.761C411.178 140.816 411.168 140.862 411.149 140.899C411.13 140.936 411.103 140.964 411.07 140.984C411.036 141.003 410.998 141.012 410.956 141.012ZM410.954 140.944C410.985 140.944 411.011 140.937 411.033 140.922C411.054 140.907 411.071 140.886 411.082 140.858C411.093 140.831 411.099 140.799 411.099 140.761C411.099 140.704 411.087 140.659 411.063 140.626C411.039 140.593 411.004 140.577 410.958 140.577C410.926 140.577 410.9 140.584 410.878 140.599C410.857 140.614 410.84 140.635 410.829 140.663C410.818 140.69 410.813 140.723 410.813 140.761C410.813 140.817 410.824 140.862 410.848 140.895C410.872 140.928 410.907 140.944 410.954 140.944ZM411.33 141V140.521H411.408V141H411.33ZM411.384 140.784C411.384 140.723 411.389 140.673 411.401 140.633C411.413 140.593 411.43 140.563 411.452 140.543C411.475 140.523 411.502 140.513 411.535 140.513C411.545 140.513 411.555 140.514 411.564 140.515C411.573 140.517 411.582 140.519 411.591 140.522L411.586 140.599C411.576 140.596 411.566 140.593 411.555 140.591C411.544 140.589 411.534 140.588 411.526 140.588C411.497 140.588 411.474 140.596 411.457 140.612C411.44 140.628 411.427 140.651 411.419 140.68C411.411 140.71 411.408 140.744 411.408 140.784H411.384ZM411.691 141V140.318H411.769V141H411.691ZM412.142 141.012C412.103 141.012 412.068 141.002 412.036 140.981C412.003 140.96 411.977 140.931 411.958 140.893C411.939 140.855 411.929 140.81 411.929 140.759C411.929 140.708 411.939 140.664 411.958 140.626C411.977 140.589 412.002 140.56 412.033 140.54C412.065 140.52 412.099 140.51 412.137 140.51C412.172 140.51 412.203 140.518 412.229 140.535C412.256 140.552 412.276 140.577 412.291 140.609C412.306 140.641 412.313 140.68 412.313 140.725H412.283C412.283 140.693 412.277 140.667 412.264 140.645C412.252 140.623 412.236 140.607 412.216 140.596C412.196 140.585 412.174 140.579 412.151 140.579C412.125 140.579 412.101 140.586 412.08 140.601C412.058 140.615 412.041 140.636 412.028 140.663C412.015 140.69 412.009 140.722 412.009 140.759C412.009 140.797 412.015 140.83 412.028 140.857C412.041 140.884 412.058 140.905 412.08 140.92C412.101 140.935 412.125 140.942 412.151 140.942C412.173 140.942 412.194 140.936 412.214 140.925C412.234 140.914 412.251 140.897 412.264 140.875C412.277 140.853 412.283 140.827 412.283 140.796H412.313C412.313 140.842 412.305 140.882 412.29 140.914C412.275 140.946 412.255 140.97 412.229 140.987C412.203 141.004 412.174 141.012 412.142 141.012ZM412.296 141L412.283 140.888V140.318H412.361V141H412.296ZM413.023 141.012C412.971 141.012 412.925 141 412.884 140.976C412.843 140.952 412.81 140.916 412.787 140.868C412.763 140.82 412.751 140.759 412.751 140.687C412.751 140.614 412.763 140.553 412.787 140.505C412.81 140.457 412.843 140.421 412.884 140.397C412.925 140.373 412.971 140.361 413.023 140.361C413.075 140.361 413.122 140.373 413.163 140.397C413.204 140.421 413.236 140.457 413.26 140.505C413.283 140.554 413.295 140.614 413.295 140.687C413.295 140.76 413.283 140.821 413.26 140.869C413.236 140.917 413.204 140.953 413.163 140.976C413.122 141 413.075 141.012 413.023 141.012ZM413.023 140.94C413.082 140.94 413.129 140.918 413.163 140.875C413.197 140.832 413.214 140.769 413.214 140.686C413.214 140.604 413.197 140.541 413.163 140.498C413.129 140.453 413.082 140.431 413.023 140.431C412.965 140.431 412.918 140.453 412.884 140.498C412.849 140.542 412.832 140.605 412.832 140.687C412.832 140.77 412.849 140.833 412.884 140.876C412.918 140.919 412.965 140.94 413.023 140.94ZM413.447 141V140.521H413.525V141H413.447ZM413.501 140.784C413.501 140.723 413.507 140.673 413.518 140.633C413.53 140.593 413.547 140.563 413.569 140.543C413.592 140.523 413.619 140.513 413.652 140.513C413.662 140.513 413.672 140.514 413.681 140.515C413.69 140.517 413.699 140.519 413.708 140.522L413.703 140.599C413.693 140.596 413.683 140.593 413.672 140.591C413.661 140.589 413.651 140.588 413.643 140.588C413.614 140.588 413.592 140.596 413.574 140.612C413.557 140.628 413.544 140.651 413.536 140.68C413.529 140.71 413.525 140.744 413.525 140.784H413.501ZM413.979 141.012C413.94 141.012 413.905 141.002 413.873 140.981C413.84 140.96 413.814 140.931 413.795 140.893C413.776 140.855 413.766 140.81 413.766 140.759C413.766 140.708 413.776 140.664 413.795 140.626C413.814 140.589 413.839 140.56 413.87 140.54C413.902 140.52 413.936 140.51 413.974 140.51C414.009 140.51 414.04 140.518 414.066 140.535C414.093 140.552 414.113 140.577 414.128 140.609C414.143 140.641 414.15 140.68 414.15 140.725H414.12C414.12 140.693 414.114 140.667 414.101 140.645C414.089 140.623 414.073 140.607 414.053 140.596C414.033 140.585 414.011 140.579 413.988 140.579C413.962 140.579 413.938 140.586 413.917 140.601C413.895 140.615 413.878 140.636 413.865 140.663C413.852 140.69 413.846 140.722 413.846 140.759C413.846 140.797 413.852 140.83 413.865 140.857C413.878 140.884 413.895 140.905 413.917 140.92C413.938 140.935 413.962 140.942 413.988 140.942C414.01 140.942 414.031 140.936 414.051 140.925C414.071 140.914 414.088 140.897 414.101 140.875C414.114 140.853 414.12 140.827 414.12 140.796H414.15C414.15 140.842 414.142 140.882 414.127 140.914C414.112 140.946 414.092 140.97 414.066 140.987C414.04 141.004 414.011 141.012 413.979 141.012ZM414.133 141L414.12 140.888V140.318H414.198V141H414.133ZM414.567 141.012C414.525 141.012 414.488 141.001 414.456 140.98C414.423 140.959 414.398 140.93 414.379 140.892C414.36 140.854 414.351 140.811 414.351 140.762C414.351 140.71 414.36 140.665 414.379 140.627C414.397 140.589 414.423 140.56 414.455 140.54C414.488 140.52 414.525 140.51 414.567 140.51C414.603 140.51 414.634 140.517 414.66 140.532C414.685 140.547 414.706 140.566 414.722 140.591C414.737 140.616 414.748 140.645 414.754 140.676C414.761 140.708 414.762 140.74 414.76 140.774H414.414V140.726H414.708L414.685 140.741C414.686 140.721 414.685 140.702 414.682 140.682C414.679 140.662 414.673 140.644 414.664 140.628C414.656 140.611 414.643 140.598 414.628 140.588C414.612 140.578 414.592 140.573 414.568 140.573C414.537 140.573 414.511 140.581 414.491 140.596C414.47 140.612 414.455 140.633 414.444 140.658C414.434 140.684 414.429 140.711 414.429 140.741V140.773C414.429 140.806 414.434 140.836 414.444 140.862C414.454 140.889 414.469 140.91 414.49 140.925C414.51 140.94 414.536 140.948 414.567 140.948C414.598 140.948 414.623 140.94 414.643 140.925C414.663 140.91 414.675 140.888 414.68 140.859H414.761C414.756 140.891 414.744 140.918 414.727 140.941C414.709 140.964 414.687 140.981 414.659 140.993C414.632 141.006 414.601 141.012 414.567 141.012ZM414.914 141V140.521H414.992V141H414.914ZM414.968 140.784C414.968 140.723 414.974 140.673 414.986 140.633C414.998 140.593 415.015 140.563 415.037 140.543C415.06 140.523 415.087 140.513 415.119 140.513C415.13 140.513 415.14 140.514 415.148 140.515C415.157 140.517 415.166 140.519 415.175 140.522L415.17 140.599C415.161 140.596 415.151 140.593 415.14 140.591C415.129 140.589 415.119 140.588 415.11 140.588C415.082 140.588 415.059 140.596 415.042 140.612C415.025 140.628 415.012 140.651 415.004 140.68C414.996 140.71 414.992 140.744 414.992 140.784H414.968Z" fill="black"/>
<path d="M417.1 141V140.372H417.487V140.439H417.178V140.65H417.469V140.717H417.178V140.932H417.487V141H417.1ZM417.829 141.012C417.791 141.012 417.755 141.002 417.722 140.982C417.689 140.962 417.663 140.933 417.643 140.895C417.623 140.858 417.613 140.813 417.613 140.76C417.613 140.708 417.623 140.663 417.643 140.626C417.663 140.589 417.689 140.56 417.721 140.54C417.754 140.52 417.789 140.51 417.826 140.51C417.858 140.51 417.888 140.518 417.914 140.534C417.941 140.55 417.962 140.574 417.977 140.605C417.993 140.637 418.001 140.676 418.001 140.722H417.967C417.967 140.691 417.96 140.665 417.948 140.644C417.936 140.623 417.92 140.606 417.9 140.595C417.88 140.584 417.858 140.579 417.836 140.579C417.81 140.579 417.786 140.586 417.764 140.6C417.742 140.615 417.725 140.635 417.712 140.662C417.699 140.689 417.693 140.722 417.693 140.76C417.693 140.8 417.699 140.833 417.713 140.86C417.727 140.887 417.745 140.907 417.767 140.921C417.789 140.935 417.812 140.942 417.837 140.942C417.859 140.942 417.879 140.937 417.899 140.927C417.919 140.916 417.935 140.901 417.948 140.88C417.96 140.86 417.967 140.835 417.967 140.805H417.99C417.99 140.846 417.983 140.882 417.971 140.913C417.959 140.944 417.941 140.969 417.917 140.986C417.893 141.003 417.863 141.012 417.829 141.012ZM418.091 141.246C418.045 141.233 418.013 141.214 417.995 141.188C417.976 141.161 417.967 141.124 417.967 141.076V140.634L417.991 140.522H418.044V141.081C418.044 141.104 418.046 141.122 418.05 141.135C418.054 141.148 418.062 141.158 418.073 141.165C418.083 141.173 418.098 141.18 418.117 141.186L418.091 141.246ZM418.572 140.521H418.65V141H418.572V140.521ZM418.233 140.521H418.311V140.819C418.311 140.859 418.321 140.889 418.34 140.91C418.36 140.931 418.388 140.941 418.424 140.941C418.454 140.941 418.48 140.933 418.502 140.917C418.525 140.901 418.542 140.879 418.554 140.851C418.566 140.823 418.572 140.79 418.572 140.754H418.601C418.601 140.808 418.594 140.853 418.578 140.891C418.563 140.929 418.541 140.959 418.512 140.979C418.484 140.999 418.451 141.009 418.413 141.009C418.377 141.009 418.346 141.002 418.319 140.989C418.292 140.976 418.271 140.955 418.256 140.928C418.241 140.901 418.233 140.867 418.233 140.825V140.521ZM419.149 141L419.139 140.895V140.69C419.139 140.647 419.13 140.616 419.111 140.597C419.093 140.578 419.066 140.569 419.029 140.569C419.008 140.569 418.989 140.572 418.972 140.578C418.956 140.584 418.942 140.593 418.932 140.606C418.923 140.618 418.918 140.634 418.918 140.654H418.831C418.831 140.619 418.839 140.591 418.856 140.57C418.873 140.549 418.897 140.534 418.926 140.524C418.956 140.515 418.991 140.51 419.029 140.51C419.066 140.51 419.098 140.516 419.126 140.528C419.155 140.541 419.177 140.56 419.193 140.587C419.209 140.614 419.217 140.649 419.217 140.692V141H419.149ZM418.986 141.012C418.947 141.012 418.914 141.005 418.888 140.991C418.863 140.977 418.844 140.959 418.831 140.936C418.818 140.914 418.812 140.891 418.812 140.866C418.812 140.834 418.82 140.807 418.836 140.787C418.852 140.767 418.874 140.752 418.902 140.742C418.93 140.733 418.962 140.728 418.997 140.728C419.022 140.728 419.047 140.73 419.072 140.735C419.097 140.74 419.122 140.747 419.146 140.756V140.805C419.126 140.797 419.103 140.791 419.078 140.786C419.053 140.781 419.03 140.779 419.009 140.779C418.977 140.779 418.95 140.786 418.928 140.799C418.906 140.812 418.895 140.834 418.895 140.866C418.895 140.889 418.903 140.909 418.92 140.926C418.937 140.943 418.964 140.951 419.001 140.951C419.027 140.951 419.05 140.945 419.071 140.933C419.092 140.921 419.108 140.905 419.12 140.887C419.133 140.869 419.139 140.85 419.139 140.832H419.158C419.158 140.864 419.151 140.894 419.137 140.921C419.123 140.948 419.104 140.97 419.078 140.987C419.052 141.004 419.022 141.012 418.986 141.012ZM419.404 141V140.318H419.482V141H419.404ZM419.834 140.372H419.922L420.085 140.931H420.062L420.229 140.437H420.282L420.447 140.927H420.425L420.612 140.372H420.699L420.477 141H420.395L420.25 140.574H420.265L420.115 141H420.033L419.834 140.372ZM420.956 141.012C420.913 141.012 420.874 141.003 420.841 140.984C420.807 140.964 420.781 140.936 420.762 140.899C420.742 140.862 420.733 140.816 420.733 140.761C420.733 140.706 420.742 140.66 420.762 140.623C420.781 140.586 420.807 140.557 420.841 140.538C420.874 140.519 420.913 140.51 420.956 140.51C420.998 140.51 421.036 140.519 421.07 140.538C421.103 140.557 421.13 140.586 421.149 140.623C421.168 140.66 421.178 140.706 421.178 140.761C421.178 140.816 421.168 140.862 421.149 140.899C421.13 140.936 421.103 140.964 421.07 140.984C421.036 141.003 420.998 141.012 420.956 141.012ZM420.954 140.944C420.985 140.944 421.011 140.937 421.033 140.922C421.054 140.907 421.071 140.886 421.082 140.858C421.093 140.831 421.099 140.799 421.099 140.761C421.099 140.704 421.087 140.659 421.063 140.626C421.039 140.593 421.004 140.577 420.958 140.577C420.926 140.577 420.9 140.584 420.878 140.599C420.857 140.614 420.84 140.635 420.829 140.663C420.818 140.69 420.813 140.723 420.813 140.761C420.813 140.817 420.824 140.862 420.848 140.895C420.872 140.928 420.907 140.944 420.954 140.944ZM421.33 141V140.521H421.408V141H421.33ZM421.384 140.784C421.384 140.723 421.389 140.673 421.401 140.633C421.413 140.593 421.43 140.563 421.452 140.543C421.475 140.523 421.502 140.513 421.535 140.513C421.545 140.513 421.555 140.514 421.564 140.515C421.573 140.517 421.582 140.519 421.591 140.522L421.586 140.599C421.576 140.596 421.566 140.593 421.555 140.591C421.544 140.589 421.534 140.588 421.526 140.588C421.497 140.588 421.474 140.596 421.457 140.612C421.44 140.628 421.427 140.651 421.419 140.68C421.411 140.71 421.408 140.744 421.408 140.784H421.384ZM421.691 141V140.318H421.769V141H421.691ZM422.142 141.012C422.103 141.012 422.068 141.002 422.036 140.981C422.003 140.96 421.977 140.931 421.958 140.893C421.939 140.855 421.929 140.81 421.929 140.759C421.929 140.708 421.939 140.664 421.958 140.626C421.977 140.589 422.002 140.56 422.033 140.54C422.065 140.52 422.099 140.51 422.137 140.51C422.172 140.51 422.203 140.518 422.229 140.535C422.256 140.552 422.276 140.577 422.291 140.609C422.306 140.641 422.313 140.68 422.313 140.725H422.283C422.283 140.693 422.277 140.667 422.264 140.645C422.252 140.623 422.236 140.607 422.216 140.596C422.196 140.585 422.174 140.579 422.151 140.579C422.125 140.579 422.101 140.586 422.08 140.601C422.058 140.615 422.041 140.636 422.028 140.663C422.015 140.69 422.009 140.722 422.009 140.759C422.009 140.797 422.015 140.83 422.028 140.857C422.041 140.884 422.058 140.905 422.08 140.92C422.101 140.935 422.125 140.942 422.151 140.942C422.173 140.942 422.194 140.936 422.214 140.925C422.234 140.914 422.251 140.897 422.264 140.875C422.277 140.853 422.283 140.827 422.283 140.796H422.313C422.313 140.842 422.305 140.882 422.29 140.914C422.275 140.946 422.255 140.97 422.229 140.987C422.203 141.004 422.174 141.012 422.142 141.012ZM422.296 141L422.283 140.888V140.318H422.361V141H422.296ZM423.023 141.012C422.971 141.012 422.925 141 422.884 140.976C422.843 140.952 422.81 140.916 422.787 140.868C422.763 140.82 422.751 140.759 422.751 140.687C422.751 140.614 422.763 140.553 422.787 140.505C422.81 140.457 422.843 140.421 422.884 140.397C422.925 140.373 422.971 140.361 423.023 140.361C423.075 140.361 423.122 140.373 423.163 140.397C423.204 140.421 423.236 140.457 423.26 140.505C423.283 140.554 423.295 140.614 423.295 140.687C423.295 140.76 423.283 140.821 423.26 140.869C423.236 140.917 423.204 140.953 423.163 140.976C423.122 141 423.075 141.012 423.023 141.012ZM423.023 140.94C423.082 140.94 423.129 140.918 423.163 140.875C423.197 140.832 423.214 140.769 423.214 140.686C423.214 140.604 423.197 140.541 423.163 140.498C423.129 140.453 423.082 140.431 423.023 140.431C422.965 140.431 422.918 140.453 422.884 140.498C422.849 140.542 422.832 140.605 422.832 140.687C422.832 140.77 422.849 140.833 422.884 140.876C422.918 140.919 422.965 140.94 423.023 140.94ZM423.447 141V140.521H423.525V141H423.447ZM423.501 140.784C423.501 140.723 423.507 140.673 423.518 140.633C423.53 140.593 423.547 140.563 423.569 140.543C423.592 140.523 423.619 140.513 423.652 140.513C423.662 140.513 423.672 140.514 423.681 140.515C423.69 140.517 423.699 140.519 423.708 140.522L423.703 140.599C423.693 140.596 423.683 140.593 423.672 140.591C423.661 140.589 423.651 140.588 423.643 140.588C423.614 140.588 423.592 140.596 423.574 140.612C423.557 140.628 423.544 140.651 423.536 140.68C423.529 140.71 423.525 140.744 423.525 140.784H423.501ZM423.979 141.012C423.94 141.012 423.905 141.002 423.873 140.981C423.84 140.96 423.814 140.931 423.795 140.893C423.776 140.855 423.766 140.81 423.766 140.759C423.766 140.708 423.776 140.664 423.795 140.626C423.814 140.589 423.839 140.56 423.87 140.54C423.902 140.52 423.936 140.51 423.974 140.51C424.009 140.51 424.04 140.518 424.066 140.535C424.093 140.552 424.113 140.577 424.128 140.609C424.143 140.641 424.15 140.68 424.15 140.725H424.12C424.12 140.693 424.114 140.667 424.101 140.645C424.089 140.623 424.073 140.607 424.053 140.596C424.033 140.585 424.011 140.579 423.988 140.579C423.962 140.579 423.938 140.586 423.917 140.601C423.895 140.615 423.878 140.636 423.865 140.663C423.852 140.69 423.846 140.722 423.846 140.759C423.846 140.797 423.852 140.83 423.865 140.857C423.878 140.884 423.895 140.905 423.917 140.92C423.938 140.935 423.962 140.942 423.988 140.942C424.01 140.942 424.031 140.936 424.051 140.925C424.071 140.914 424.088 140.897 424.101 140.875C424.114 140.853 424.12 140.827 424.12 140.796H424.15C424.15 140.842 424.142 140.882 424.127 140.914C424.112 140.946 424.092 140.97 424.066 140.987C424.04 141.004 424.011 141.012 423.979 141.012ZM424.133 141L424.12 140.888V140.318H424.198V141H424.133ZM424.567 141.012C424.525 141.012 424.488 141.001 424.456 140.98C424.423 140.959 424.398 140.93 424.379 140.892C424.36 140.854 424.351 140.811 424.351 140.762C424.351 140.71 424.36 140.665 424.379 140.627C424.397 140.589 424.423 140.56 424.455 140.54C424.488 140.52 424.525 140.51 424.567 140.51C424.603 140.51 424.634 140.517 424.66 140.532C424.685 140.547 424.706 140.566 424.722 140.591C424.737 140.616 424.748 140.645 424.754 140.676C424.761 140.708 424.762 140.74 424.76 140.774H424.414V140.726H424.708L424.685 140.741C424.686 140.721 424.685 140.702 424.682 140.682C424.679 140.662 424.673 140.644 424.664 140.628C424.656 140.611 424.643 140.598 424.628 140.588C424.612 140.578 424.592 140.573 424.568 140.573C424.537 140.573 424.511 140.581 424.491 140.596C424.47 140.612 424.455 140.633 424.444 140.658C424.434 140.684 424.429 140.711 424.429 140.741V140.773C424.429 140.806 424.434 140.836 424.444 140.862C424.454 140.889 424.469 140.91 424.49 140.925C424.51 140.94 424.536 140.948 424.567 140.948C424.598 140.948 424.623 140.94 424.643 140.925C424.663 140.91 424.675 140.888 424.68 140.859H424.761C424.756 140.891 424.744 140.918 424.727 140.941C424.709 140.964 424.687 140.981 424.659 140.993C424.632 141.006 424.601 141.012 424.567 141.012ZM424.914 141V140.521H424.992V141H424.914ZM424.968 140.784C424.968 140.723 424.974 140.673 424.986 140.633C424.998 140.593 425.015 140.563 425.037 140.543C425.06 140.523 425.087 140.513 425.119 140.513C425.13 140.513 425.14 140.514 425.148 140.515C425.157 140.517 425.166 140.519 425.175 140.522L425.17 140.599C425.161 140.596 425.151 140.593 425.14 140.591C425.129 140.589 425.119 140.588 425.11 140.588C425.082 140.588 425.059 140.596 425.042 140.612C425.025 140.628 425.012 140.651 425.004 140.68C424.996 140.71 424.992 140.744 424.992 140.784H424.968Z" fill="black"/>
<path d="M427.1 141V140.372H427.487V140.439H427.178V140.65H427.469V140.717H427.178V140.932H427.487V141H427.1ZM427.829 141.012C427.791 141.012 427.755 141.002 427.722 140.982C427.689 140.962 427.663 140.933 427.643 140.895C427.623 140.858 427.613 140.813 427.613 140.76C427.613 140.708 427.623 140.663 427.643 140.626C427.663 140.589 427.689 140.56 427.721 140.54C427.754 140.52 427.789 140.51 427.826 140.51C427.858 140.51 427.888 140.518 427.914 140.534C427.941 140.55 427.962 140.574 427.977 140.605C427.993 140.637 428.001 140.676 428.001 140.722H427.967C427.967 140.691 427.96 140.665 427.948 140.644C427.936 140.623 427.92 140.606 427.9 140.595C427.88 140.584 427.858 140.579 427.836 140.579C427.81 140.579 427.786 140.586 427.764 140.6C427.742 140.615 427.725 140.635 427.712 140.662C427.699 140.689 427.693 140.722 427.693 140.76C427.693 140.8 427.699 140.833 427.713 140.86C427.727 140.887 427.745 140.907 427.767 140.921C427.789 140.935 427.812 140.942 427.837 140.942C427.859 140.942 427.879 140.937 427.899 140.927C427.919 140.916 427.935 140.901 427.948 140.88C427.96 140.86 427.967 140.835 427.967 140.805H427.99C427.99 140.846 427.983 140.882 427.971 140.913C427.959 140.944 427.941 140.969 427.917 140.986C427.893 141.003 427.863 141.012 427.829 141.012ZM428.091 141.246C428.045 141.233 428.013 141.214 427.995 141.188C427.976 141.161 427.967 141.124 427.967 141.076V140.634L427.991 140.522H428.044V141.081C428.044 141.104 428.046 141.122 428.05 141.135C428.054 141.148 428.062 141.158 428.073 141.165C428.083 141.173 428.098 141.18 428.117 141.186L428.091 141.246ZM428.572 140.521H428.65V141H428.572V140.521ZM428.233 140.521H428.311V140.819C428.311 140.859 428.321 140.889 428.34 140.91C428.36 140.931 428.388 140.941 428.424 140.941C428.454 140.941 428.48 140.933 428.502 140.917C428.525 140.901 428.542 140.879 428.554 140.851C428.566 140.823 428.572 140.79 428.572 140.754H428.601C428.601 140.808 428.594 140.853 428.578 140.891C428.563 140.929 428.541 140.959 428.512 140.979C428.484 140.999 428.451 141.009 428.413 141.009C428.377 141.009 428.346 141.002 428.319 140.989C428.292 140.976 428.271 140.955 428.256 140.928C428.241 140.901 428.233 140.867 428.233 140.825V140.521ZM429.149 141L429.139 140.895V140.69C429.139 140.647 429.13 140.616 429.111 140.597C429.093 140.578 429.066 140.569 429.029 140.569C429.008 140.569 428.989 140.572 428.972 140.578C428.956 140.584 428.942 140.593 428.932 140.606C428.923 140.618 428.918 140.634 428.918 140.654H428.831C428.831 140.619 428.839 140.591 428.856 140.57C428.873 140.549 428.897 140.534 428.926 140.524C428.956 140.515 428.991 140.51 429.029 140.51C429.066 140.51 429.098 140.516 429.126 140.528C429.155 140.541 429.177 140.56 429.193 140.587C429.209 140.614 429.217 140.649 429.217 140.692V141H429.149ZM428.986 141.012C428.947 141.012 428.914 141.005 428.888 140.991C428.863 140.977 428.844 140.959 428.831 140.936C428.818 140.914 428.812 140.891 428.812 140.866C428.812 140.834 428.82 140.807 428.836 140.787C428.852 140.767 428.874 140.752 428.902 140.742C428.93 140.733 428.962 140.728 428.997 140.728C429.022 140.728 429.047 140.73 429.072 140.735C429.097 140.74 429.122 140.747 429.146 140.756V140.805C429.126 140.797 429.103 140.791 429.078 140.786C429.053 140.781 429.03 140.779 429.009 140.779C428.977 140.779 428.95 140.786 428.928 140.799C428.906 140.812 428.895 140.834 428.895 140.866C428.895 140.889 428.903 140.909 428.92 140.926C428.937 140.943 428.964 140.951 429.001 140.951C429.027 140.951 429.05 140.945 429.071 140.933C429.092 140.921 429.108 140.905 429.12 140.887C429.133 140.869 429.139 140.85 429.139 140.832H429.158C429.158 140.864 429.151 140.894 429.137 140.921C429.123 140.948 429.104 140.97 429.078 140.987C429.052 141.004 429.022 141.012 428.986 141.012ZM429.404 141V140.318H429.482V141H429.404ZM429.834 140.372H429.922L430.085 140.931H430.062L430.229 140.437H430.282L430.447 140.927H430.425L430.612 140.372H430.699L430.477 141H430.395L430.25 140.574H430.265L430.115 141H430.033L429.834 140.372ZM430.956 141.012C430.913 141.012 430.874 141.003 430.841 140.984C430.807 140.964 430.781 140.936 430.762 140.899C430.742 140.862 430.733 140.816 430.733 140.761C430.733 140.706 430.742 140.66 430.762 140.623C430.781 140.586 430.807 140.557 430.841 140.538C430.874 140.519 430.913 140.51 430.956 140.51C430.998 140.51 431.036 140.519 431.07 140.538C431.103 140.557 431.13 140.586 431.149 140.623C431.168 140.66 431.178 140.706 431.178 140.761C431.178 140.816 431.168 140.862 431.149 140.899C431.13 140.936 431.103 140.964 431.07 140.984C431.036 141.003 430.998 141.012 430.956 141.012ZM430.954 140.944C430.985 140.944 431.011 140.937 431.033 140.922C431.054 140.907 431.071 140.886 431.082 140.858C431.093 140.831 431.099 140.799 431.099 140.761C431.099 140.704 431.087 140.659 431.063 140.626C431.039 140.593 431.004 140.577 430.958 140.577C430.926 140.577 430.9 140.584 430.878 140.599C430.857 140.614 430.84 140.635 430.829 140.663C430.818 140.69 430.813 140.723 430.813 140.761C430.813 140.817 430.824 140.862 430.848 140.895C430.872 140.928 430.907 140.944 430.954 140.944ZM431.33 141V140.521H431.408V141H431.33ZM431.384 140.784C431.384 140.723 431.389 140.673 431.401 140.633C431.413 140.593 431.43 140.563 431.452 140.543C431.475 140.523 431.502 140.513 431.535 140.513C431.545 140.513 431.555 140.514 431.564 140.515C431.573 140.517 431.582 140.519 431.591 140.522L431.586 140.599C431.576 140.596 431.566 140.593 431.555 140.591C431.544 140.589 431.534 140.588 431.526 140.588C431.497 140.588 431.474 140.596 431.457 140.612C431.44 140.628 431.427 140.651 431.419 140.68C431.411 140.71 431.408 140.744 431.408 140.784H431.384ZM431.691 141V140.318H431.769V141H431.691ZM432.142 141.012C432.103 141.012 432.068 141.002 432.036 140.981C432.003 140.96 431.977 140.931 431.958 140.893C431.939 140.855 431.929 140.81 431.929 140.759C431.929 140.708 431.939 140.664 431.958 140.626C431.977 140.589 432.002 140.56 432.033 140.54C432.065 140.52 432.099 140.51 432.137 140.51C432.172 140.51 432.203 140.518 432.229 140.535C432.256 140.552 432.276 140.577 432.291 140.609C432.306 140.641 432.313 140.68 432.313 140.725H432.283C432.283 140.693 432.277 140.667 432.264 140.645C432.252 140.623 432.236 140.607 432.216 140.596C432.196 140.585 432.174 140.579 432.151 140.579C432.125 140.579 432.101 140.586 432.08 140.601C432.058 140.615 432.041 140.636 432.028 140.663C432.015 140.69 432.009 140.722 432.009 140.759C432.009 140.797 432.015 140.83 432.028 140.857C432.041 140.884 432.058 140.905 432.08 140.92C432.101 140.935 432.125 140.942 432.151 140.942C432.173 140.942 432.194 140.936 432.214 140.925C432.234 140.914 432.251 140.897 432.264 140.875C432.277 140.853 432.283 140.827 432.283 140.796H432.313C432.313 140.842 432.305 140.882 432.29 140.914C432.275 140.946 432.255 140.97 432.229 140.987C432.203 141.004 432.174 141.012 432.142 141.012ZM432.296 141L432.283 140.888V140.318H432.361V141H432.296ZM433.023 141.012C432.971 141.012 432.925 141 432.884 140.976C432.843 140.952 432.81 140.916 432.787 140.868C432.763 140.82 432.751 140.759 432.751 140.687C432.751 140.614 432.763 140.553 432.787 140.505C432.81 140.457 432.843 140.421 432.884 140.397C432.925 140.373 432.971 140.361 433.023 140.361C433.075 140.361 433.122 140.373 433.163 140.397C433.204 140.421 433.236 140.457 433.26 140.505C433.283 140.554 433.295 140.614 433.295 140.687C433.295 140.76 433.283 140.821 433.26 140.869C433.236 140.917 433.204 140.953 433.163 140.976C433.122 141 433.075 141.012 433.023 141.012ZM433.023 140.94C433.082 140.94 433.129 140.918 433.163 140.875C433.197 140.832 433.214 140.769 433.214 140.686C433.214 140.604 433.197 140.541 433.163 140.498C433.129 140.453 433.082 140.431 433.023 140.431C432.965 140.431 432.918 140.453 432.884 140.498C432.849 140.542 432.832 140.605 432.832 140.687C432.832 140.77 432.849 140.833 432.884 140.876C432.918 140.919 432.965 140.94 433.023 140.94ZM433.447 141V140.521H433.525V141H433.447ZM433.501 140.784C433.501 140.723 433.507 140.673 433.518 140.633C433.53 140.593 433.547 140.563 433.569 140.543C433.592 140.523 433.619 140.513 433.652 140.513C433.662 140.513 433.672 140.514 433.681 140.515C433.69 140.517 433.699 140.519 433.708 140.522L433.703 140.599C433.693 140.596 433.683 140.593 433.672 140.591C433.661 140.589 433.651 140.588 433.643 140.588C433.614 140.588 433.592 140.596 433.574 140.612C433.557 140.628 433.544 140.651 433.536 140.68C433.529 140.71 433.525 140.744 433.525 140.784H433.501ZM433.979 141.012C433.94 141.012 433.905 141.002 433.873 140.981C433.84 140.96 433.814 140.931 433.795 140.893C433.776 140.855 433.766 140.81 433.766 140.759C433.766 140.708 433.776 140.664 433.795 140.626C433.814 140.589 433.839 140.56 433.87 140.54C433.902 140.52 433.936 140.51 433.974 140.51C434.009 140.51 434.04 140.518 434.066 140.535C434.093 140.552 434.113 140.577 434.128 140.609C434.143 140.641 434.15 140.68 434.15 140.725H434.12C434.12 140.693 434.114 140.667 434.101 140.645C434.089 140.623 434.073 140.607 434.053 140.596C434.033 140.585 434.011 140.579 433.988 140.579C433.962 140.579 433.938 140.586 433.917 140.601C433.895 140.615 433.878 140.636 433.865 140.663C433.852 140.69 433.846 140.722 433.846 140.759C433.846 140.797 433.852 140.83 433.865 140.857C433.878 140.884 433.895 140.905 433.917 140.92C433.938 140.935 433.962 140.942 433.988 140.942C434.01 140.942 434.031 140.936 434.051 140.925C434.071 140.914 434.088 140.897 434.101 140.875C434.114 140.853 434.12 140.827 434.12 140.796H434.15C434.15 140.842 434.142 140.882 434.127 140.914C434.112 140.946 434.092 140.97 434.066 140.987C434.04 141.004 434.011 141.012 433.979 141.012ZM434.133 141L434.12 140.888V140.318H434.198V141H434.133ZM434.567 141.012C434.525 141.012 434.488 141.001 434.456 140.98C434.423 140.959 434.398 140.93 434.379 140.892C434.36 140.854 434.351 140.811 434.351 140.762C434.351 140.71 434.36 140.665 434.379 140.627C434.397 140.589 434.423 140.56 434.455 140.54C434.488 140.52 434.525 140.51 434.567 140.51C434.603 140.51 434.634 140.517 434.66 140.532C434.685 140.547 434.706 140.566 434.722 140.591C434.737 140.616 434.748 140.645 434.754 140.676C434.761 140.708 434.762 140.74 434.76 140.774H434.414V140.726H434.708L434.685 140.741C434.686 140.721 434.685 140.702 434.682 140.682C434.679 140.662 434.673 140.644 434.664 140.628C434.656 140.611 434.643 140.598 434.628 140.588C434.612 140.578 434.592 140.573 434.568 140.573C434.537 140.573 434.511 140.581 434.491 140.596C434.47 140.612 434.455 140.633 434.444 140.658C434.434 140.684 434.429 140.711 434.429 140.741V140.773C434.429 140.806 434.434 140.836 434.444 140.862C434.454 140.889 434.469 140.91 434.49 140.925C434.51 140.94 434.536 140.948 434.567 140.948C434.598 140.948 434.623 140.94 434.643 140.925C434.663 140.91 434.675 140.888 434.68 140.859H434.761C434.756 140.891 434.744 140.918 434.727 140.941C434.709 140.964 434.687 140.981 434.659 140.993C434.632 141.006 434.601 141.012 434.567 141.012ZM434.914 141V140.521H434.992V141H434.914ZM434.968 140.784C434.968 140.723 434.974 140.673 434.986 140.633C434.998 140.593 435.015 140.563 435.037 140.543C435.06 140.523 435.087 140.513 435.119 140.513C435.13 140.513 435.14 140.514 435.148 140.515C435.157 140.517 435.166 140.519 435.175 140.522L435.17 140.599C435.161 140.596 435.151 140.593 435.14 140.591C435.129 140.589 435.119 140.588 435.11 140.588C435.082 140.588 435.059 140.596 435.042 140.612C435.025 140.628 435.012 140.651 435.004 140.68C434.996 140.71 434.992 140.744 434.992 140.784H434.968Z" fill="black"/>
<rect x="390" y="183" width="32" height="2" fill="white"/>
<path d="M393.099 184V183.372H393.301C393.37 183.372 393.423 183.389 393.459 183.424C393.496 183.459 393.514 183.506 393.514 183.566C393.514 183.625 393.496 183.672 393.459 183.706C393.423 183.741 393.37 183.758 393.301 183.758H393.178V184H393.099ZM393.178 183.69H393.301C393.345 183.69 393.378 183.679 393.4 183.656C393.423 183.634 393.434 183.604 393.434 183.566C393.434 183.527 393.423 183.496 393.4 183.473C393.378 183.45 393.345 183.439 393.301 183.439H393.178V183.69ZM393.821 184.012C393.779 184.012 393.742 184.001 393.71 183.98C393.677 183.959 393.652 183.93 393.633 183.892C393.614 183.854 393.605 183.811 393.605 183.762C393.605 183.71 393.614 183.665 393.633 183.627C393.651 183.589 393.677 183.56 393.709 183.54C393.742 183.52 393.779 183.51 393.821 183.51C393.857 183.51 393.888 183.517 393.914 183.532C393.939 183.547 393.96 183.566 393.976 183.591C393.991 183.616 394.002 183.645 394.008 183.676C394.015 183.708 394.016 183.74 394.014 183.774H393.668V183.726H393.962L393.939 183.741C393.94 183.721 393.939 183.702 393.936 183.682C393.933 183.662 393.927 183.644 393.918 183.628C393.91 183.611 393.897 183.598 393.882 183.588C393.866 183.578 393.846 183.573 393.822 183.573C393.791 183.573 393.765 183.581 393.745 183.596C393.724 183.612 393.709 183.633 393.698 183.658C393.688 183.684 393.683 183.711 393.683 183.741V183.773C393.683 183.806 393.688 183.836 393.698 183.862C393.708 183.889 393.723 183.91 393.744 183.925C393.764 183.94 393.79 183.948 393.821 183.948C393.852 183.948 393.877 183.94 393.897 183.925C393.917 183.91 393.929 183.888 393.934 183.859H394.015C394.01 183.891 393.998 183.918 393.981 183.941C393.963 183.964 393.941 183.981 393.913 183.993C393.886 184.006 393.855 184.012 393.821 184.012ZM394.464 184L394.454 183.895V183.69C394.454 183.647 394.445 183.616 394.427 183.597C394.409 183.578 394.381 183.569 394.344 183.569C394.324 183.569 394.305 183.572 394.288 183.578C394.271 183.584 394.258 183.593 394.248 183.606C394.238 183.618 394.233 183.634 394.233 183.654H394.146C394.146 183.619 394.155 183.591 394.172 183.57C394.189 183.549 394.212 183.534 394.242 183.524C394.272 183.515 394.306 183.51 394.344 183.51C394.381 183.51 394.414 183.516 394.442 183.528C394.47 183.541 394.492 183.56 394.508 183.587C394.524 183.614 394.532 183.649 394.532 183.692V184H394.464ZM394.301 184.012C394.262 184.012 394.23 184.005 394.204 183.991C394.178 183.977 394.159 183.959 394.146 183.936C394.134 183.914 394.127 183.891 394.127 183.866C394.127 183.834 394.135 183.807 394.151 183.787C394.168 183.767 394.19 183.752 394.218 183.742C394.246 183.733 394.277 183.728 394.312 183.728C394.337 183.728 394.362 183.73 394.387 183.735C394.413 183.74 394.437 183.747 394.461 183.756V183.805C394.441 183.797 394.419 183.791 394.393 183.786C394.368 183.781 394.345 183.779 394.324 183.779C394.292 183.779 394.265 183.786 394.243 183.799C394.221 183.812 394.21 183.834 394.21 183.866C394.21 183.889 394.219 183.909 394.235 183.926C394.252 183.943 394.279 183.951 394.316 183.951C394.342 183.951 394.366 183.945 394.386 183.933C394.407 183.921 394.424 183.905 394.436 183.887C394.448 183.869 394.454 183.85 394.454 183.832H394.473C394.473 183.864 394.466 183.894 394.452 183.921C394.439 183.948 394.419 183.97 394.393 183.987C394.368 184.004 394.337 184.012 394.301 184.012ZM394.887 184.012C394.849 184.012 394.813 184.002 394.78 183.981C394.747 183.96 394.72 183.931 394.7 183.893C394.679 183.856 394.669 183.811 394.669 183.76C394.669 183.707 394.679 183.662 394.7 183.625C394.72 183.588 394.747 183.559 394.78 183.539C394.813 183.52 394.849 183.51 394.887 183.51C394.914 183.51 394.938 183.514 394.96 183.522C394.981 183.53 395 183.542 395.016 183.556C395.032 183.57 395.045 183.587 395.056 183.605C395.066 183.623 395.074 183.642 395.079 183.662L394.999 183.669C394.991 183.641 394.977 183.619 394.957 183.603C394.938 183.587 394.914 183.579 394.886 183.579C394.862 183.579 394.84 183.586 394.819 183.599C394.798 183.613 394.782 183.633 394.769 183.66C394.756 183.687 394.749 183.72 394.749 183.76C394.749 183.797 394.755 183.829 394.767 183.856C394.779 183.883 394.795 183.904 394.816 183.919C394.836 183.934 394.86 183.942 394.886 183.942C394.923 183.942 394.951 183.933 394.97 183.915C394.989 183.897 394.999 183.871 394.999 183.839H395.079C395.079 183.872 395.071 183.902 395.056 183.928C395.04 183.954 395.018 183.974 394.989 183.989C394.96 184.004 394.926 184.012 394.887 184.012ZM395.401 184.012C395.359 184.012 395.322 184.001 395.29 183.98C395.257 183.959 395.232 183.93 395.213 183.892C395.194 183.854 395.185 183.811 395.185 183.762C395.185 183.71 395.194 183.665 395.213 183.627C395.231 183.589 395.257 183.56 395.289 183.54C395.322 183.52 395.359 183.51 395.401 183.51C395.437 183.51 395.468 183.517 395.494 183.532C395.519 183.547 395.54 183.566 395.556 183.591C395.571 183.616 395.582 183.645 395.588 183.676C395.595 183.708 395.596 183.74 395.594 183.774H395.248V183.726H395.542L395.519 183.741C395.52 183.721 395.519 183.702 395.516 183.682C395.513 183.662 395.507 183.644 395.498 183.628C395.49 183.611 395.477 183.598 395.462 183.588C395.446 183.578 395.426 183.573 395.402 183.573C395.371 183.573 395.345 183.581 395.325 183.596C395.304 183.612 395.289 183.633 395.278 183.658C395.268 183.684 395.263 183.711 395.263 183.741V183.773C395.263 183.806 395.268 183.836 395.278 183.862C395.288 183.889 395.303 183.91 395.324 183.925C395.344 183.94 395.37 183.948 395.401 183.948C395.432 183.948 395.457 183.94 395.477 183.925C395.497 183.91 395.509 183.888 395.514 183.859H395.595C395.59 183.891 395.578 183.918 395.561 183.941C395.543 183.964 395.521 183.981 395.493 183.993C395.466 184.006 395.435 184.012 395.401 184.012Z" fill="black"/>
<path d="M414.1 184V183.372H414.487V183.439H414.178V183.65H414.469V183.717H414.178V183.932H414.487V184H414.1ZM414.829 184.012C414.791 184.012 414.755 184.002 414.722 183.982C414.689 183.962 414.663 183.933 414.643 183.895C414.623 183.858 414.613 183.813 414.613 183.76C414.613 183.708 414.623 183.663 414.643 183.626C414.663 183.589 414.689 183.56 414.721 183.54C414.754 183.52 414.789 183.51 414.826 183.51C414.858 183.51 414.888 183.518 414.914 183.534C414.941 183.55 414.962 183.574 414.977 183.605C414.993 183.637 415.001 183.676 415.001 183.722H414.967C414.967 183.691 414.96 183.665 414.948 183.644C414.936 183.623 414.92 183.606 414.9 183.595C414.88 183.584 414.858 183.579 414.836 183.579C414.81 183.579 414.786 183.586 414.764 183.6C414.742 183.615 414.725 183.635 414.712 183.662C414.699 183.689 414.693 183.722 414.693 183.76C414.693 183.8 414.699 183.833 414.713 183.86C414.727 183.887 414.745 183.907 414.767 183.921C414.789 183.935 414.812 183.942 414.837 183.942C414.859 183.942 414.879 183.937 414.899 183.927C414.919 183.916 414.935 183.901 414.948 183.88C414.96 183.86 414.967 183.835 414.967 183.805H414.99C414.99 183.846 414.983 183.882 414.971 183.913C414.959 183.944 414.941 183.969 414.917 183.986C414.893 184.003 414.863 184.012 414.829 184.012ZM415.091 184.246C415.045 184.233 415.013 184.214 414.995 184.188C414.976 184.161 414.967 184.124 414.967 184.076V183.634L414.991 183.522H415.044V184.081C415.044 184.104 415.046 184.122 415.05 184.135C415.054 184.148 415.062 184.158 415.073 184.165C415.083 184.173 415.098 184.18 415.117 184.186L415.091 184.246ZM415.572 183.521H415.65V184H415.572V183.521ZM415.233 183.521H415.311V183.819C415.311 183.859 415.321 183.889 415.34 183.91C415.36 183.931 415.388 183.941 415.424 183.941C415.454 183.941 415.48 183.933 415.502 183.917C415.525 183.901 415.542 183.879 415.554 183.851C415.566 183.823 415.572 183.79 415.572 183.754H415.601C415.601 183.808 415.594 183.853 415.578 183.891C415.563 183.929 415.541 183.959 415.512 183.979C415.484 183.999 415.451 184.009 415.413 184.009C415.377 184.009 415.346 184.002 415.319 183.989C415.292 183.976 415.271 183.955 415.256 183.928C415.241 183.901 415.233 183.867 415.233 183.825V183.521ZM416.149 184L416.139 183.895V183.69C416.139 183.647 416.13 183.616 416.111 183.597C416.093 183.578 416.066 183.569 416.029 183.569C416.008 183.569 415.989 183.572 415.972 183.578C415.956 183.584 415.942 183.593 415.932 183.606C415.923 183.618 415.918 183.634 415.918 183.654H415.831C415.831 183.619 415.839 183.591 415.856 183.57C415.873 183.549 415.897 183.534 415.926 183.524C415.956 183.515 415.991 183.51 416.029 183.51C416.066 183.51 416.098 183.516 416.126 183.528C416.155 183.541 416.177 183.56 416.193 183.587C416.209 183.614 416.217 183.649 416.217 183.692V184H416.149ZM415.986 184.012C415.947 184.012 415.914 184.005 415.888 183.991C415.863 183.977 415.844 183.959 415.831 183.936C415.818 183.914 415.812 183.891 415.812 183.866C415.812 183.834 415.82 183.807 415.836 183.787C415.852 183.767 415.874 183.752 415.902 183.742C415.93 183.733 415.962 183.728 415.997 183.728C416.022 183.728 416.047 183.73 416.072 183.735C416.097 183.74 416.122 183.747 416.146 183.756V183.805C416.126 183.797 416.103 183.791 416.078 183.786C416.053 183.781 416.03 183.779 416.009 183.779C415.977 183.779 415.95 183.786 415.928 183.799C415.906 183.812 415.895 183.834 415.895 183.866C415.895 183.889 415.903 183.909 415.92 183.926C415.937 183.943 415.964 183.951 416.001 183.951C416.027 183.951 416.05 183.945 416.071 183.933C416.092 183.921 416.108 183.905 416.12 183.887C416.133 183.869 416.139 183.85 416.139 183.832H416.158C416.158 183.864 416.151 183.894 416.137 183.921C416.123 183.948 416.104 183.97 416.078 183.987C416.052 184.004 416.022 184.012 415.986 184.012ZM416.404 184V183.318H416.482V184H416.404ZM416.728 183.409C416.712 183.409 416.699 183.404 416.69 183.395C416.681 183.386 416.676 183.374 416.676 183.359C416.676 183.344 416.681 183.333 416.69 183.324C416.699 183.315 416.712 183.311 416.728 183.311C416.744 183.311 416.757 183.315 416.766 183.324C416.775 183.333 416.78 183.344 416.78 183.359C416.78 183.374 416.775 183.386 416.766 183.395C416.757 183.404 416.744 183.409 416.728 183.409ZM416.689 184V183.521H416.767V184H416.689ZM417.129 184.012C417.103 184.012 417.08 184.007 417.059 183.997C417.038 183.987 417.022 183.972 417.01 183.952C416.998 183.932 416.992 183.907 416.992 183.877V183.389H417.069V183.875C417.069 183.924 417.092 183.949 417.138 183.949C417.152 183.949 417.165 183.947 417.177 183.944C417.19 183.941 417.205 183.937 417.221 183.931L417.232 183.987C417.215 183.994 417.198 184 417.181 184.005C417.164 184.01 417.147 184.012 417.129 184.012ZM416.915 183.576V183.522H417.22V183.576H416.915ZM417.279 183.522H417.366L417.522 183.932H417.504L417.625 183.522H417.705L417.525 184.096C417.51 184.144 417.49 184.181 417.465 184.207C417.44 184.233 417.408 184.246 417.369 184.246C417.348 184.246 417.328 184.243 417.309 184.237C417.29 184.231 417.271 184.222 417.251 184.211V184.139C417.269 184.153 417.286 184.163 417.302 184.169C417.319 184.175 417.336 184.178 417.354 184.178C417.374 184.178 417.391 184.172 417.404 184.159C417.418 184.146 417.429 184.13 417.438 184.11C417.447 184.09 417.455 184.07 417.461 184.048L417.475 184L417.279 183.522Z" fill="black"/>
</svg>
